<?xml version="1.0" encoding="utf-8"?>
<!-- Generator: Adobe Illustrator 19.2.0, SVG Export Plug-In . SVG Version: 6.00 Build 0)  -->
<svg version="1.1" id="Layer_1" xmlns="http://www.w3.org/2000/svg" xmlns:xlink="http://www.w3.org/1999/xlink" x="0px" y="0px"
	 viewBox="0 0 601 162" style="enable-background:new 0 0 601 162;" xml:space="preserve">
<style type="text/css">
	.st0{fill:#4BAAD4;}
</style>
<g>
	<path class="st0" d="M188.578,92.177l-5.279,11.98h-5.755L198.8,56.776h5.618l21.186,47.381h-5.89l-5.279-11.98H188.578z
		 M201.439,62.936l-10.56,24.029h21.256L201.439,62.936z"/>
	<path class="st0" d="M393.708,63.544l-3.25,4.13c-3.654-3.724-8.798-5.957-14.01-5.957c-10.695,0-19.289,8.258-19.289,18.681
		c0,10.356,8.594,18.682,19.289,18.682c5.212,0,10.287-2.166,14.01-5.687l3.317,3.724c-4.671,4.399-11.034,7.309-17.599,7.309
		c-13.671,0-24.501-10.627-24.501-24.029c0-13.266,10.964-23.757,24.705-23.757C382.878,56.641,389.171,59.281,393.708,63.544z"/>
	<path class="st0" d="M453.082,84.663c0,12.319-7.447,19.764-19.835,19.764c-12.452,0-19.965-7.445-19.965-19.764V56.776h5.414
		v27.887c0,9.205,5.551,14.552,14.551,14.552c9.003,0,14.419-5.348,14.419-14.552V56.776h5.416V84.663z"/>
	<path class="st0" d="M482.607,61.988v15.568H506.5v5.212h-23.893v16.245h27.616v5.144h-33.03V56.776h32.15v5.212H482.607z"/>
	<path class="st0" d="M561.203,60.973l-2.303,5.076c-4.262-2.843-9.272-3.993-13.061-3.993c-6.094,0-10.087,2.301-10.087,6.295
		c0,12.183,26.667,5.821,26.602,23.013c0,7.92-6.974,12.996-17.126,12.996c-6.904,0-13.671-2.978-18.14-7.242l2.435-4.874
		c4.402,4.265,10.424,6.701,15.772,6.701c6.837,0,11.101-2.775,11.101-7.31c0.067-12.454-26.602-5.821-26.602-22.81
		c0-7.446,6.568-12.252,16.38-12.252C551.657,56.573,557.275,58.333,561.203,60.973z"/>
	<path class="st0" d="M261.694,56.776h-17.801v47.381h5.414v-6.76v-8.198v-5.212v-5.459v-16.54h12.183
		c8.529,0,13.469,3.655,13.469,10.83c0,7.378-4.94,11.169-13.469,11.169h-6.697v5.212h6.901c11.71,0,18.479-6.024,18.479-16.515
		C280.173,62.597,273.403,56.776,261.694,56.776z"/>
	<path class="st0" d="M317.818,56.776h-17.801v47.381h5.414v-6.76v-8.198v-5.212v-5.459v-16.54h12.183
		c8.529,0,13.469,3.655,13.469,10.83c0,7.378-4.94,11.169-13.469,11.169h-6.697v5.212h6.901c11.71,0,18.479-6.024,18.479-16.515
		C336.297,62.597,329.528,56.776,317.818,56.776z"/>
</g>
<g>
	<polygon class="st0" points="87.173,84.191 107.003,115.347 117.413,115.347 117.413,45.653 	"/>
	<polygon class="st0" points="62.795,115.347 81.938,115.347 81.938,90.721 	"/>
</g>
<g>
	<path class="st0" d="M140.407,138.958H39.803c-4.499,0-8.158-3.659-8.158-8.155V30.198c0-4.498,3.659-8.157,8.158-8.157h100.604
		c4.497,0,8.155,3.659,8.155,8.157v100.604C148.562,135.299,144.904,138.958,140.407,138.958z M39.803,24.419
		c-3.187,0-5.781,2.593-5.781,5.779v100.604c0,3.186,2.593,5.778,5.781,5.778h100.604c3.185,0,5.778-2.592,5.778-5.778V30.198
		c0-3.186-2.593-5.779-5.778-5.779H39.803z"/>
</g>
</svg>
