<svg width="610" height="170" xmlns="http://www.w3.org/2000/svg" xmlns:sketch="http://www.bohemiancoding.com/sketch/ns"><title>logo</title><g sketch:type="MSArtboardGroup" fill="none"><path d="M47.414 110.293l-47.414 59.707h135v-170l-74.673 94.032 47.86 75.968h-60.773v-59.707zm0 0" fill="#4BAAD3" sketch:type="MSShapeGroup"/><path d="M171.314 111.529h.291c4.226 6.994 12.386 11.074 21.857 11.074 16.466 0 31.911-12.531 31.911-37.886 0-21.42-12.823-35.846-29.871-35.846-11.511 0-19.817 5.1-25.063 13.697h-.291l-.583-12.094h-11.657c.437 6.703.583 13.989.583 23.023v76.354h12.823v-38.323zm.583-13.989c-.437-1.603-.583-3.351-.583-5.246v-12.094c0-1.749.437-3.643.874-5.246 2.331-9.617 10.637-15.737 19.38-15.737 13.551 0 20.983 11.949 20.983 26.083 0 16.174-7.869 27.394-21.42 27.394-9.18 0-16.903-6.12-19.234-15.154zm87.329 13.989h.291c4.226 6.994 12.386 11.074 21.857 11.074 16.466 0 31.911-12.531 31.911-37.886 0-21.42-12.823-35.846-29.871-35.846-11.511 0-19.817 5.1-25.063 13.697h-.291l-.583-12.094h-11.657c.437 6.703.583 13.989.583 23.023v76.354h12.823v-38.323zm.583-13.989c-.437-1.603-.583-3.351-.583-5.246v-12.094c0-1.749.437-3.643.874-5.246 2.331-9.617 10.637-15.737 19.38-15.737 13.551 0 20.983 11.949 20.983 26.083 0 16.174-7.869 27.394-21.42 27.394-9.18 0-16.903-6.12-19.234-15.154zm69.551-10.929c0 21.566 13.843 35.991 35.117 35.991 9.471 0 16.903-2.477 20.254-4.226l-2.186-9.471c-3.643 1.457-8.451 3.351-15.591 3.351-14.134 0-24.626-10.054-24.626-26.374 0-14.571 8.743-26.666 24.917-26.666 6.994 0 11.803 1.749 14.863 3.351l2.914-9.909c-3.497-1.749-10.346-3.643-17.923-3.643-22.877 0-37.74 15.883-37.74 37.594zm74.943 5.1c0 22.586 10.491 30.891 24.189 30.891 13.114 0 20.254-7.723 23.46-13.114h.291l.729 11.511h11.22c-.291-5.683-.583-11.803-.583-19.234v-51.291h-12.677v43.277c0 2.186-.437 4.663-1.166 6.703-1.894 5.246-7.869 11.657-17.194 11.657-11.074 0-15.591-8.889-15.591-22.586v-39.051h-12.677v41.237zm80.48-4.663c0 21.129 12.969 35.554 34.68 35.554 11.074 0 19.089-2.477 23.46-4.517l-2.186-9.18c-4.809 2.04-10.346 3.643-19.671 3.643-12.823 0-23.751-7.14-24.043-24.48h49.397c.437-1.457.583-3.206.583-5.974 0-12.969-6.12-33.223-28.997-33.223-20.691 0-33.223 16.757-33.223 38.177zm12.386-8.16c1.02-8.889 6.703-20.691 19.671-20.691 14.426 0 17.923 12.677 17.777 20.691h-37.449zm65.763 38.76c4.954 2.914 12.094 4.954 19.817 4.954 16.757 0 26.374-8.889 26.374-21.274 0-10.637-6.411-16.611-18.506-21.129-9.326-3.643-13.406-6.266-13.406-12.094 0-5.246 4.226-9.763 11.803-9.763 6.411 0 11.657 2.623 14.426 4.226l3.06-9.326c-3.789-2.331-9.909-4.371-17.194-4.371-15.154 0-24.334 9.326-24.334 20.691 0 8.451 5.974 15.446 18.651 20.109 9.471 3.497 13.114 6.703 13.114 12.823 0 5.974-4.371 10.491-13.697 10.491-6.411 0-13.114-2.623-16.903-4.954l-3.206 9.617zm0 0" fill="#142D38" sketch:type="MSShapeGroup"/></g></svg>